{"title":"Sairat 2016 576p DvDSCR-[ Pavan ]","uid":14520126,"size":1440335832,"categoryP":"video","categoryS":"movies","magnet":"?xt=urn:btih:c3b4742bf545dc56563936c229dab359aa9d0c36&amp;dn=Sairat+2016+576p+DvDSCR-%5B+Pavan+%5D&amp;tr=udp%3A%2F%2Ftracker.leechers-paradise.org%3A6969&amp;tr=udp%3A%2F%2Fzer0day.ch%3A1337&amp;tr=udp%3A%2F%2Fopen.demonii.com%3A1337&amp;tr=udp%3A%2F%2Ftracker.coppersurfer.tk%3A6969&amp;tr=udp%3A%2F%2Fexodus.desync.com%3A6969","seeders":2,"leechers":0,"uploader":"pavan777","files":1,"time":1462374650,"description":"\n0\r\n0\r\n Sairat 2016 576p DvDSCR-[ Pavan ]\r\nseeders: 1leechers: 5updated: 20 sec. ago\r\n    DOWNLOAD TORRENT \r\nAdded on 18:08 May 4, 2016 by  pavan7771259 in Movies &gt; Bollywood\t\r\nDownloaded 0 times.\r\nMAIN\r\n \r\nTECHNICAL\r\n \r\nTRAILER\r\n \r\nSCREENSHOTS\r\n \r\nCOMMENTS\r\n \r\nMovie: Sairat\r\nDetected quality: MPEG-4\r\nIMDb link: 5312232\r\nWatch on Solarmovie: Sairat\r\nGenre: Romance\r\n \r\n add Sairat to bookmarks\r\nRelease date: 29 April 2016\r\nWriters: Nagraj Manjule (screenplay), Bharat Manjule (dialogue)\r\nDirector: Nagraj Manjule\r\nLanguage: Hindi\r\nCast: Rinku Rajguru, Akash Thosar and others Summary:\r\nA group of four, 3 boys and a girl are very unbound, fearless and carefree.\r\nWritten by  OzzyPsycko1116\r\nAvailable in versions:\r\nCAM\r\nSairat 2016 576p DvDSCR-Pavan.mp4 (Size: 1.34 GB)\r\n \t\tSairat 2016 480p DvDSCR-Pavan.mp4\t1.34 GB\r\nDescription\r\nimage\r\n\r\n\r\nGeneral\r\nComplete name :Sairat 2016 480p DvDSCR-Pavan.mp4\r\nFormat : MPEG-4\r\nFormat profile : Base Media / Version 2\r\nCodec ID : mp42\r\nFile size : 1.34 GiB\r\nDuration : 2h 56mn\r\nOverall bit rate : 1 091 Kbps\r\n\r\nVideo\r\nID : 1\r\nFormat : AVC\r\nFormat/Info : Advanced Video Codec\r\nFormat profile :   \r\nFormat settings, CABAC : No\r\nFormat settings, ReFrames : 2 frames\r\nFormat settings, GOP : M=1, N=90\r\nCodec ID : avc1\r\nCodec ID/Info : Advanced Video Coding\r\nDuration : 2h 56mn\r\nSource duration : 2h 56mn\r\nBit rate : 958 Kbps\r\nWidth :720 pixels\r\nHeight : 380 pixels\r\nDisplay aspect ratio : 16:9\r\nFrame rate mode : Constant\r\nFrame rate : 29.970 fps\r\nColor space : YUV\r\nChroma subsampling : 4:2:0\r\nBit depth : 8 bits\r\nScan type : Progressive\r\nBits/(Pixel*Frame) : 0.313\r\nStream size : 1.18 GiB (88%)\r\nSource stream size : 1.18 GiB (88%)\r\n\r\nAudio\r\nID : 2\r\nFormat : AAC\r\nFormat/Info : Advanced Audio Codec\r\nFormat profile : LC\r\nCodec ID : 40\r\nDuration : 2h 56mn\r\nBit rate mode : Constant\r\nBit rate : 128 Kbps\r\nChannel(s) : 2 channels\r\nChannel positions : Front: L R\r\nSampling rate : 48.0 KHz\r\nCompression mode : Lossy\r\nStream size : 164 MiB (12%)","torrent":{"xt":"urn:btih:c3b4742bf545dc56563936c229dab359aa9d0c36","amp;dn":"Sairat+2016+576p+DvDSCR-%5B+Pavan+%5D","amp;tr":["udp%3A%2F%2Ftracker.leechers-paradise.org%3A6969","udp%3A%2F%2Fzer0day.ch%3A1337","udp%3A%2F%2Fopen.demonii.com%3A1337","udp%3A%2F%2Ftracker.coppersurfer.tk%3A6969","udp%3A%2F%2Fexodus.desync.com%3A6969"],"infoHash":"c3b4742bf545dc56563936c229dab359aa9d0c36","infoHashBuffer":{"type":"Buffer","data":[195,180,116,43,245,69,220,86,86,57,54,194,41,218,179,89,170,157,12,54]},"announce":[],"urlList":[]}}